<svg xmlns="http://www.w3.org/2000/svg" viewBox="0 0 212.61 284.33"><defs><style>.cls-1{stroke:#231f20;stroke-miterlimit:10;}.cls-2{font-size:161.83px;}.cls-2,.cls-3,.cls-4{fill:#231f20;}.cls-2,.cls-3{font-family:TeluguMN, Telugu MN;}.cls-3{font-size:161.83px;}</style></defs><g id="Layer_2" data-name="Layer 2"><g id="Layer_1-2" data-name="Layer 1"><path class="cls-1" d="M107.43.5C42.87.5.51,34.76.51,34.76c10,195,105.79,213.08,105.79,213.08s86.59-14.12,105.79-213.08C212.09,34.76,172,.5,107.43.5ZM106.3,226.8S26.79,211.81,18.51,50c0,0,35.15-28.43,88.73-28.43S194.09,50,194.09,50C178.16,215.09,106.3,226.8,106.3,226.8Z"/><text class="cls-2" transform="translate(45.88 178.06)">V</text><text class="cls-3" transform="matrix(0.91, 0.4, -0.4, 0.91, 97.3, 171.58)">I</text><path class="cls-4" d="M129.29,52.67S118.62,57.59,117.8,56c-.61-1.22-.77-7.42,0-10.87-2,2.5-5.48,5.94-6.52,4.51-1.65-2.26-4.93-19.5-4.93-19.5s-3.28,17.24-4.93,19.5c-1,1.43-4.55-2-6.52-4.51.72,3.45.57,9.65,0,10.87-.82,1.64-11.49-3.28-11.49-3.28l6.36,6.16s-2,13.13,1.23,9.23,15.4-6.77,15.4-6.77,12.11,2.87,15.4,6.77,1.23-9.23,1.23-9.23Z"/><path class="cls-4" d="M118.82,42.81c-.47.22-.82,1.08-1.07,2.27C118.88,43.64,119.5,42.51,118.82,42.81Z"/><path class="cls-4" d="M93.78,42.81c-.68-.3-.06.83,1.07,2.27C94.6,43.89,94.25,43,93.78,42.81Z"/></g></g></svg>